<svg width="331" height="216" viewBox="0 0 331 216" fill="none" xmlns="http://www.w3.org/2000/svg">
<path d="M331 79.9817H191.868V83.5964H331V79.9817Z" fill="#E6E6E6"/>
<path d="M238.617 49.7495H203.37V80.9675H238.617V49.7495Z" fill="#E6E6E6"/>
<path d="M231.567 55.993H210.419V74.7239H231.567V55.993Z" fill="#CCCCCC"/>
<path d="M291.301 49.7495H282.397V80.9675H291.301V49.7495Z" fill="#E6E6E6"/>
<path d="M291.301 54.6786H282.397V58.2933H291.301V54.6786Z" fill="#CCCCCC"/>
<path d="M291.301 70.452H282.397V74.0667H291.301V70.452Z" fill="#CCCCCC"/>
<path d="M277.574 49.7495H268.669V80.9675H277.574V49.7495Z" fill="#E6E6E6"/>
<path d="M277.574 54.6786H268.669V58.2933H277.574V54.6786Z" fill="#CCCCCC"/>
<path d="M277.574 70.452H268.669V74.0667H277.574V70.452Z" fill="#CCCCCC"/>
<path d="M298.973 49.6204L290.993 53.1196L306.632 81.0967L314.612 77.5974L298.973 49.6204Z" fill="#E6E6E6"/>
<path d="M301.443 54.0378L293.463 57.537L295.273 60.7765L303.253 57.2772L301.443 54.0378Z" fill="#CCCCCC"/>
<path d="M309.344 68.1736L301.364 71.6728L303.175 74.9123L311.155 71.413L309.344 68.1736Z" fill="#CCCCCC"/>
<path d="M216.541 62.2804L221.025 69.1594L225.51 76.0384H216.541H207.573L212.057 69.1594L216.541 62.2804Z" fill="#E6E6E6"/>
<path d="M224.332 63.5948L228.816 70.4738L233.301 77.3528H224.332H215.364L219.848 70.4738L224.332 63.5948Z" fill="#E6E6E6"/>
<path d="M227.486 61.5795C228.921 61.5795 230.083 60.5496 230.083 59.2792C230.083 58.0088 228.921 56.9789 227.486 56.9789C226.052 56.9789 224.889 58.0088 224.889 59.2792C224.889 60.5496 226.052 61.5795 227.486 61.5795Z" fill="#E6E6E6"/>
<path d="M191.868 33.9761L331 33.9761V30.3613L191.868 30.3613V33.9761Z" fill="#E6E6E6"/>
<path d="M284.252 31.3472L319.498 31.3472V0.129097L284.252 0.129097V31.3472Z" fill="#E6E6E6"/>
<path d="M291.301 25.1036L312.449 25.1036V6.37271L291.301 6.37271V25.1036Z" fill="#CCCCCC"/>
<path d="M231.567 31.3472H240.472V0.129097H231.567V31.3472Z" fill="#E6E6E6"/>
<path d="M231.567 8.673L240.472 8.673V5.05828L231.567 5.05828V8.673Z" fill="#CCCCCC"/>
<path d="M231.567 24.4464H240.472V20.8316H231.567V24.4464Z" fill="#CCCCCC"/>
<path d="M245.295 31.3472H254.199V0.129097H245.295V31.3472Z" fill="#E6E6E6"/>
<path d="M245.295 8.673L254.199 8.673V5.05828L245.295 5.05828V8.673Z" fill="#CCCCCC"/>
<path d="M245.295 24.4464H254.199V20.8316H245.295V24.4464Z" fill="#CCCCCC"/>
<path d="M208.256 27.977L216.236 31.4763L231.875 3.49926L223.895 2.17777e-05L208.256 27.977Z" fill="#E6E6E6"/>
<path d="M219.615 7.65689L227.595 11.1561L229.406 7.91668L221.426 4.41744L219.615 7.65689Z" fill="#CCCCCC"/>
<path d="M211.713 21.7927L219.693 25.2919L221.504 22.0525L213.524 18.5532L211.713 21.7927Z" fill="#CCCCCC"/>
<path d="M306.327 12.6599L301.843 19.5389L297.359 26.4179H306.327H315.296L310.811 19.5389L306.327 12.6599Z" fill="#E6E6E6"/>
<path d="M298.536 13.9744L294.052 20.8533L289.568 27.7323H298.536H307.504L303.02 20.8533L298.536 13.9744Z" fill="#E6E6E6"/>
<path d="M295.382 11.9591C296.817 11.9591 297.979 10.9292 297.979 9.65883C297.979 8.38842 296.817 7.35855 295.382 7.35855C293.948 7.35855 292.785 8.38842 292.785 9.65883C292.785 10.9292 293.948 11.9591 295.382 11.9591Z" fill="#E6E6E6"/>
<path d="M191.868 133.217L331 133.217V129.602L191.868 129.602V133.217Z" fill="#E6E6E6"/>
<path d="M284.252 130.588H319.498V99.3698H284.252V130.588Z" fill="#E6E6E6"/>
<path d="M291.301 124.344H312.449V105.613H291.301V124.344Z" fill="#CCCCCC"/>
<path d="M231.567 130.588H240.472V99.3698H231.567V130.588Z" fill="#E6E6E6"/>
<path d="M231.567 107.914H240.472V104.299H231.567V107.914Z" fill="#CCCCCC"/>
<path d="M231.567 123.687H240.472V120.072H231.567V123.687Z" fill="#CCCCCC"/>
<path d="M245.295 130.588H254.199V99.3698H245.295V130.588Z" fill="#E6E6E6"/>
<path d="M245.295 107.914H254.199V104.299H245.295V107.914Z" fill="#CCCCCC"/>
<path d="M245.295 123.687H254.199V120.072H245.295V123.687Z" fill="#CCCCCC"/>
<path d="M208.257 127.218L216.236 130.717L231.875 102.74L223.895 99.2407L208.257 127.218Z" fill="#E6E6E6"/>
<path d="M219.615 106.898L227.595 110.397L229.406 107.157L221.426 103.658L219.615 106.898Z" fill="#CCCCCC"/>
<path d="M211.713 121.033L219.693 124.533L221.504 121.293L213.524 117.794L211.713 121.033Z" fill="#CCCCCC"/>
<path d="M306.327 111.901L301.843 118.78L297.359 125.659H306.327H315.296L310.811 118.78L306.327 111.901Z" fill="#E6E6E6"/>
<path d="M298.536 113.215L294.052 120.094L289.568 126.973H298.536H307.504L303.02 120.094L298.536 113.215Z" fill="#E6E6E6"/>
<path d="M295.382 111.2C296.817 111.2 297.979 110.17 297.979 108.9C297.979 107.629 296.817 106.599 295.382 106.599C293.948 106.599 292.785 107.629 292.785 108.9C292.785 110.17 293.948 111.2 295.382 111.2Z" fill="#E6E6E6"/>
<path d="M163.897 216C254.415 216 327.794 211.384 327.794 205.69C327.794 199.996 254.415 195.38 163.897 195.38C73.3792 195.38 0 199.996 0 205.69C0 211.384 73.3792 216 163.897 216Z" fill="#E6E6E6"/>
<path d="M291.942 211.464C265.217 207.251 235.992 207.951 205.337 211.464C219.309 201.016 231.368 190.569 217.396 180.121C244.65 185.101 248.468 184.597 278.786 180.121C271.754 190.569 284.909 201.016 291.942 211.464Z" fill="#8DA7BE"/>
<path opacity="0.2" d="M291.942 211.464C265.217 207.251 235.992 207.951 205.337 211.464C219.309 201.016 231.368 190.569 217.396 180.121C244.65 185.101 248.468 184.597 278.786 180.121C271.754 190.569 284.909 201.016 291.942 211.464Z" fill="black"/>
<path d="M285.423 207.006C262.721 203.644 237.896 204.203 211.856 207.006C223.724 198.667 233.968 190.328 222.099 181.988C245.251 185.964 248.494 185.561 274.248 181.988C268.275 190.328 279.449 198.667 285.423 207.006Z" fill="#8DA7BE"/>
<path d="M276.776 193.57C283.457 193.57 288.872 188.773 288.872 182.856C288.872 176.939 283.457 172.143 276.776 172.143C270.096 172.143 264.68 176.939 264.68 182.856C264.68 188.773 270.096 193.57 276.776 193.57Z" fill="#2F2E41"/>
<path d="M221.866 170.43L230.247 171.667L234.438 182.389L222.332 188.988L208.363 170.43H221.401H221.866Z" fill="#A0616A"/>
<path d="M245.613 186.926C256.413 186.926 265.169 179.171 265.169 169.605C265.169 160.039 256.413 152.284 245.613 152.284C234.812 152.284 226.057 160.039 226.057 169.605C226.057 179.171 234.812 186.926 245.613 186.926Z" fill="#A0616A"/>
<path d="M137.59 106.508C137.59 106.508 90.0968 111.045 81.7157 110.22C73.3346 109.395 69.6097 108.57 69.6097 108.57C69.6097 108.57 64.0223 115.169 66.816 118.055C68.3806 119.719 70.2739 121.116 72.4034 122.179C72.4034 122.179 77.5252 120.942 81.2501 122.179C84.9751 123.417 122.69 128.778 129.209 123.829C135.727 118.88 137.59 106.508 137.59 106.508Z" fill="#2F2E41"/>
<path d="M140.849 198.473C140.849 198.473 109.653 190.637 104.065 155.996V152.697C104.065 152.697 97.8928 162.288 95.6842 164.244C93.1233 166.512 84.0438 186.926 84.5094 188.988C84.975 191.05 84.5094 191.875 84.5094 191.875L71.0065 190.637V186.926C71.0065 186.926 78.2236 167.749 78.6892 163.213C79.1548 158.677 96.6154 127.128 96.6154 127.128C96.6154 127.128 103.134 115.169 114.309 127.128C125.484 139.088 126.415 147.336 126.415 147.336L140.849 172.08L140.849 198.473Z" fill="#2F2E41"/>
<path d="M71.0065 107.333L56.1068 102.797C56.1068 102.797 42.1383 93.7238 45.3976 102.797C48.6569 111.869 63.5567 131.664 67.7472 129.602C71.9378 127.54 76.9776 122.422 75.8545 121.682C74.7315 120.942 67.2816 115.581 71.0065 107.333Z" fill="#2F2E41"/>
<path d="M72.8075 184.491L60.7797 189.694C60.7797 189.694 46.2345 191.676 54.3463 195.392C62.458 199.108 84.8353 203.072 85.9542 199.604C87.073 196.135 86.6291 190.379 85.4525 190.532C84.2759 190.685 76.1641 191.428 72.8075 184.491Z" fill="#2F2E41"/>
<path d="M134.796 171.255C134.796 171.255 128.743 194.349 138.987 199.298C149.23 204.247 220.935 205.071 226.522 195.999C232.11 186.926 229.316 186.926 229.316 186.926L214.416 172.08L226.522 171.255C226.522 171.255 226.522 167.956 222.332 167.543C218.141 167.131 205.104 163.007 193.929 165.894C182.754 168.78 176.236 160.12 176.236 160.12L134.796 171.255Z" fill="#575A89"/>
<path d="M126.881 99.0849L118.965 137.438L173.442 131.665L183.22 97.0229L126.881 99.0849Z" fill="#3F3D56"/>
<path d="M128.51 100.528L121.992 134.757L171.58 129.603L181.125 98.4664L128.51 100.528Z" fill="white"/>
<path d="M120.827 137.851L118.965 137.438L118.034 139.088L132.934 175.791L134.335 175.317L134.796 172.905L120.827 137.851Z" fill="#B3B3B3"/>
<path d="M118.965 137.026L133.865 175.379L190.204 167.956L173.442 131.665L118.965 137.026Z" fill="#D0CDE1"/>
<path d="M126.415 135.789V137.851L167.855 133.727L167.389 131.665L126.415 135.789Z" fill="#3F3D56"/>
<path d="M127.346 139.912L133.865 155.996L176.236 151.46L168.786 136.201L127.346 139.912Z" fill="#3F3D56"/>
<path d="M180.426 162.594L179.03 159.295C179.03 159.295 168.32 142.799 162.733 146.098C157.146 149.398 174.373 165.481 174.373 165.481H179.961L180.426 162.594Z" fill="#A0616A"/>
<path d="M145.04 165.069L143.643 160.12C143.643 160.12 139.918 144.861 146.436 145.686C152.955 146.511 154.818 160.945 154.818 160.945L154.352 164.244L145.04 165.069Z" fill="#A0616A"/>
<path d="M156.214 163.007C156.214 163.007 144.108 161.357 143.643 163.832C143.177 166.306 140.849 203.422 152.489 204.659C164.13 205.896 221.866 211.257 215.813 198.473C209.76 185.689 200.448 187.338 200.448 187.338L160.871 191.05L156.214 163.007Z" fill="#575A89"/>
<path d="M192.765 167.749L180.427 160.12L172.278 165.687L182.522 175.585L192.765 167.749Z" fill="#575A89"/>
<path opacity="0.2" d="M159.707 175.173L161.569 190.844L193.697 189.194L165.759 188.782L159.707 175.173Z" fill="black"/>
<path d="M255.266 193.372C268.124 193.372 278.547 184.14 278.547 172.752C278.547 161.364 268.124 152.132 255.266 152.132C242.408 152.132 231.985 161.364 231.985 172.752C231.985 184.14 242.408 193.372 255.266 193.372Z" fill="#2F2E41"/>
<path d="M135.495 112.488L164.363 111.598L167.156 102.178L137.357 102.975L135.495 112.488Z" fill="#8DA7BE"/>
<path d="M128.045 117.849L171.813 116.612L172.278 114.962L128.51 116.327L128.045 117.849Z" fill="#E6E6E6"/>
<path d="M127.113 121.973L170.881 120.736L171.347 119.086L127.579 120.451L127.113 121.973Z" fill="#E6E6E6"/>
<path d="M126.648 125.272L170.416 124.035L170.881 122.386L127.113 123.75L126.648 125.272Z" fill="#E6E6E6"/>
</svg>
