<svg width="323" height="243" viewBox="0 0 323 243" fill="none" xmlns="http://www.w3.org/2000/svg">
<g clip-path="url(#clip0)">
<path opacity="0.1" d="M317.706 108.207C317.648 108.551 317.59 108.896 317.526 109.241C315.458 120.981 312.082 132.3 307.062 142.692C306.898 143.037 306.73 143.382 306.559 143.727C303.338 150.279 299.382 156.437 294.769 162.079C292.268 165.123 289.542 168.014 286.3 170.101C281.756 173.025 276.444 174.214 271.223 175.186C265.797 176.199 260.302 177.033 254.818 177.957C252.875 178.277 250.943 178.612 249.024 178.963C243.727 179.93 238.469 181.047 233.336 182.528C226.99 184.375 220.833 186.754 215.038 190.125C214.575 190.392 214.116 190.666 213.663 190.947C213.209 191.224 212.748 191.507 212.306 191.796C211.864 192.086 211.418 192.372 210.979 192.665L210.302 193.126C210.08 193.274 209.86 193.434 209.641 193.582C208.988 194.031 208.344 194.505 207.701 194.961L207.677 194.979C207.253 195.287 206.832 195.595 206.411 195.903C204.035 197.679 201.711 199.538 199.397 201.404L197.936 202.583C197.182 203.186 196.427 203.788 195.673 204.39C195.231 204.744 194.783 205.094 194.337 205.445C194.014 205.701 193.694 205.956 193.364 206.209C191.715 207.492 190.043 208.748 188.339 209.949C187.933 210.235 187.521 210.521 187.119 210.802C183.706 213.158 180.077 215.176 176.28 216.829L176.231 216.85C174.361 217.655 172.437 218.324 170.474 218.854C169.348 219.162 168.223 219.405 167.082 219.596C164.044 220.127 160.942 220.181 157.888 219.756C151.883 218.897 146.256 216.062 140.267 215.114C127.909 213.178 115.909 219.424 104.28 224.327C101.434 225.53 98.5562 226.659 95.6468 227.713C93.7194 228.415 91.7829 229.083 89.8372 229.717C77.9835 233.587 65.7692 236.225 53.3844 237.588C48.3281 238.146 43.0552 238.41 37.9073 238.01C35.9634 237.866 34.0289 237.612 32.113 237.25C25.5958 236.019 19.5117 233.405 14.6109 228.631C10.5396 224.724 7.66679 219.618 5.47713 214.289C4.59679 212.149 3.82115 209.959 3.15023 207.72C2.09565 204.211 1.30356 200.627 0.780631 196.999C0.661694 196.18 0.554955 195.358 0.475664 194.536C0.317081 193.126 0.199159 191.71 0.1219 190.288C-0.30509 182.73 0.426293 175.15 2.29022 167.817C4.36704 159.693 7.83147 151.915 9.35631 143.714C9.42035 143.369 9.4783 143.025 9.53624 142.68C9.73955 141.449 9.89407 140.195 9.99979 138.918C10.7683 128.889 7.79488 119.073 5.44663 109.241C5.36429 108.896 5.28195 108.551 5.20266 108.207C4.94852 107.117 4.70759 106.026 4.47988 104.934C2.30547 94.5361 1.71078 83.4082 3.64122 73.0315C3.70222 72.6867 3.77236 72.3388 3.8425 71.9972C5.14471 65.5698 7.44417 59.4564 10.9665 54.011C14.5804 48.4209 19.3257 43.7696 24.3851 39.6817C26.8553 37.6911 29.4099 35.8288 32.0489 34.0947C33.9458 32.8511 35.8773 31.6742 37.8433 30.5639C53.729 21.637 71.8532 17.2751 89.7731 18.2509C90.7226 18.3002 91.67 18.3659 92.6154 18.4479C93.6076 18.5341 94.5967 18.6367 95.5827 18.7558C107.12 20.101 118.346 23.4347 129.504 27.0824C133.243 28.3137 136.973 29.545 140.703 30.7763C142.362 31.3222 144.02 31.8609 145.677 32.3924C153.804 34.9812 162.066 37.3176 170.403 39.0784C172.337 39.4888 174.268 39.8633 176.198 40.2019C182.906 41.4148 189.694 42.1207 196.506 42.3136C199.149 42.3793 201.792 42.3516 204.435 42.2305C205.77 42.1689 207.107 42.0786 208.445 41.9596C222.263 40.7652 235.587 36.7604 248.966 32.9988C250.9 32.454 252.836 31.9122 254.76 31.3889C257.304 30.6994 259.85 30.0314 262.406 29.4157C278.319 25.5587 292.5 27.775 307.294 35.7292C310.649 37.5362 314.003 39.7156 316.077 43.0893C318.151 46.4631 318.654 50.6403 319.038 54.6605C319.581 60.3798 319.953 66.1793 320.072 72.0033C320.072 72.3481 320.072 72.6928 320.094 73.0376C320.362 84.8304 319.651 96.7124 317.706 108.207Z" fill="#8DA7BE"/>
<path opacity="0.1" d="M212.16 142.692H211.12V143.151V143.726H212.297L212.16 142.692ZM200.373 142.692C200.371 142.7 200.371 142.709 200.373 142.717L200.281 143.573V143.65V143.726H209.308V143.665L209.952 142.692H200.373ZM176.234 142.692V109.241H186.603C186.494 109.149 186.381 109.056 186.265 108.97L186.112 108.853C186.048 108.801 185.984 108.751 185.917 108.705C185.85 108.659 185.691 108.542 185.573 108.462C185.454 108.382 185.38 108.33 185.268 108.265L185.197 108.219H185.182H176.234V106.387L175.994 106.504L175.737 106.649H175.719L175.664 106.683L175.506 106.787C175.451 106.821 175.396 106.855 175.344 106.892C175.185 107 175.039 107.117 174.871 107.237L174.719 107.36C174.615 107.44 174.518 107.523 174.414 107.606C174.008 107.942 173.609 108.293 173.194 108.616C173.09 108.699 172.987 108.779 172.889 108.856C172.667 109.02 172.437 109.172 172.2 109.312C172.101 109.374 171.999 109.43 171.895 109.481L171.724 109.561L171.568 109.629C171.202 109.785 170.822 109.906 170.434 109.992V142.692H154.881C154.881 142.729 154.902 142.763 154.911 142.8C154.997 143.108 155.082 143.416 155.164 143.723H170.437V179.582H170.675L170.946 179.6L171.44 179.637L172.239 179.717L172.599 179.76L172.996 179.81H173.054C173.282 179.84 173.514 179.877 173.749 179.914L173.898 179.939L174.234 179.994L174.716 180.081L175.872 180.019L176.03 180.053C176.094 180.053 176.158 180.078 176.225 180.093V143.726H200.26V143.65V143.573L200.351 142.717C200.35 142.709 200.35 142.7 200.351 142.692H176.234ZM212.16 142.692H211.12V143.151V143.726H212.297L212.16 142.692ZM199.723 142.692L199.619 143.726H209.662L210.345 142.692H199.723ZM176.241 142.692V109.241H186.609C186.5 109.149 186.387 109.056 186.271 108.97L186.118 108.853C186.054 108.801 185.99 108.751 185.923 108.705C185.856 108.659 185.698 108.542 185.579 108.462C185.46 108.382 185.387 108.33 185.274 108.265L185.204 108.219H185.182H176.234V106.387L175.994 106.504L175.737 106.649H175.719L175.664 106.683L175.506 106.787C175.451 106.821 175.396 106.855 175.344 106.892C175.185 107 175.039 107.117 174.871 107.237L174.719 107.36C174.615 107.44 174.518 107.523 174.414 107.606C174.008 107.942 173.609 108.293 173.194 108.616C173.09 108.699 172.987 108.779 172.889 108.856C172.667 109.02 172.437 109.172 172.2 109.312C172.101 109.374 171.999 109.43 171.895 109.481L171.724 109.561L171.568 109.629C171.202 109.785 170.822 109.906 170.434 109.992V142.692H154.881C154.881 142.729 154.902 142.763 154.911 142.8C154.997 143.108 155.085 143.416 155.167 143.723H170.437V179.579L170.675 179.594L170.946 179.613L171.44 179.65L172.239 179.73L172.599 179.773L172.996 179.822H173.054C173.282 179.853 173.514 179.89 173.749 179.927L173.898 179.951L174.234 180.007L174.716 180.093L175.872 180.031L176.03 180.065C176.094 180.065 176.158 180.09 176.225 180.105V143.726H199.619L199.729 142.692H176.241ZM254.818 73.0314H320.152C320.152 72.6867 320.152 72.3419 320.13 71.9971H254.818V31.3827C252.879 31.906 250.942 32.4478 249.024 32.9927V71.9971H177.967L177.787 71.8001L178.058 71.4923L204.487 42.2151C201.844 42.3382 199.201 42.3659 196.557 42.2982L176.234 64.8002V40.1958C174.295 39.8572 172.363 39.4826 170.44 39.0722V63.6674L140.727 30.7702C136.997 29.5389 133.268 28.286 129.529 27.0763L169.916 71.8001L169.736 71.9971H95.6072V18.7434C94.6191 18.6306 93.63 18.528 92.6399 18.4356C91.6945 18.3515 90.7471 18.2858 89.7976 18.2386V71.9971H37.8678V30.5639C35.8977 31.6721 33.9662 32.849 32.0734 34.0947V71.9971H3.83038C3.76024 72.3388 3.6901 72.6867 3.6291 73.0314H32.049V108.207H5.20274C5.28203 108.551 5.36437 108.896 5.44671 109.241H32.0612V142.692H9.52717C9.46923 143.037 9.41128 143.382 9.34724 143.726H32.0612V237.259C33.9771 237.621 35.9116 237.875 37.8556 238.019V143.726H89.7976V229.727C91.7453 229.088 93.6819 228.42 95.6072 227.723V143.726H170.428V218.867C172.392 218.337 174.316 217.667 176.186 216.863L176.234 216.841V143.726H249.006V178.963C250.935 178.612 252.867 178.277 254.8 177.957V143.726H306.544C306.715 143.382 306.882 143.037 307.047 142.692H254.818V109.241H317.529C317.593 108.896 317.651 108.551 317.709 108.207H254.818V73.0314ZM37.8708 73.0314H89.7976V108.207H37.8678L37.8708 73.0314ZM37.8708 142.692V109.241H89.7976V142.692H37.8708ZM95.6103 73.0314H170.428V108.207H95.6072L95.6103 73.0314ZM95.6103 142.692V109.241H170.428V142.692H95.6103ZM249.009 142.692H176.234V109.241H249.006L249.009 142.692ZM249.009 108.216H176.234V73.9734L177.256 73.0314H249.006L249.009 108.216ZM200.376 142.692C200.374 142.7 200.374 142.709 200.376 142.717L200.284 143.573V143.65V143.726H209.311V143.665L209.955 142.692H200.376ZM212.163 142.692H211.123V143.151V143.726H212.3L212.163 142.692ZM176.238 142.692V109.241H186.606C186.497 109.149 186.384 109.056 186.268 108.97L186.115 108.853C186.051 108.801 185.987 108.751 185.92 108.705C185.853 108.659 185.695 108.542 185.576 108.462C185.457 108.382 185.383 108.33 185.271 108.265L185.201 108.219H185.185H176.234V106.387L175.994 106.504L175.737 106.649H175.719L175.664 106.683L175.506 106.787C175.451 106.821 175.396 106.855 175.344 106.892C175.185 107 175.039 107.117 174.871 107.237L174.719 107.36C174.615 107.44 174.518 107.523 174.414 107.606C174.008 107.942 173.609 108.293 173.194 108.616C173.09 108.699 172.987 108.779 172.889 108.856C172.667 109.02 172.437 109.172 172.2 109.312C172.101 109.374 171.999 109.43 171.895 109.481L171.724 109.561L171.568 109.629C171.202 109.785 170.822 109.906 170.434 109.992V142.692H154.881C154.881 142.729 154.902 142.763 154.911 142.8C154.997 143.108 155.082 143.416 155.164 143.723H170.437V179.582H170.675L170.946 179.6L171.44 179.637L172.239 179.717L172.599 179.76L172.996 179.81H173.054C173.282 179.84 173.514 179.877 173.749 179.914L173.898 179.939L174.234 179.994L174.716 180.081L175.872 180.019L176.03 180.053C176.094 180.053 176.158 180.078 176.225 180.093V143.726H200.26V143.65V143.573L200.351 142.717C200.35 142.709 200.35 142.7 200.351 142.692H176.238Z" fill="#8DA7BE"/>
<path opacity="0.1" d="M62.8354 48.8118H63.299C63.1404 48.7191 63.0069 48.5883 62.9106 48.4309C62.8143 48.2735 62.7581 48.0945 62.747 47.9099C62.747 47.1957 63.6131 46.6139 64.6713 46.6139H78.1357C79.1939 46.6139 80.06 47.1957 80.06 47.9099C80.06 48.6209 79.1939 49.2058 78.1357 49.2058H77.6874C77.8452 49.299 77.9779 49.4301 78.0736 49.5874C78.1694 49.7447 78.2253 49.9234 78.2363 50.1077C78.2363 50.7234 77.6081 51.2282 76.7664 51.3667H80.6425C81.6977 51.3667 82.5638 51.9485 82.5638 52.6627C82.5638 53.3768 81.6977 53.9555 80.6425 53.9555H67.1629C66.1077 53.9555 65.2416 53.3738 65.2416 52.6627C65.2416 52.047 65.8699 51.5422 66.7116 51.4037H62.8354C61.7803 51.4037 60.9141 50.8219 60.9141 50.1077C60.9141 49.3936 61.7742 48.8118 62.8354 48.8118Z" fill="#8DA7BE"/>
<path opacity="0.1" d="M208.768 61.1463H209.22C209.061 61.0532 208.927 60.9218 208.831 60.7639C208.735 60.606 208.679 60.4264 208.668 60.2413C208.668 59.5302 209.534 58.9485 210.592 58.9485H224.056C225.115 58.9485 225.981 59.5302 225.981 60.2413C225.981 60.9555 225.115 61.5373 224.056 61.5373H223.608C223.766 61.631 223.899 61.7626 223.995 61.9205C224.091 62.0783 224.146 62.2575 224.157 62.4423C224.157 63.0579 223.529 63.5597 222.687 63.6982H226.563C227.618 63.6982 228.485 64.2831 228.485 64.9941C228.485 65.7052 227.618 66.2901 226.563 66.2901H213.102C212.047 66.2901 211.181 65.7083 211.181 64.9941C211.181 64.3785 211.809 63.8737 212.651 63.7382H208.768C207.713 63.7382 206.847 63.1533 206.847 62.4423C206.847 61.7312 207.719 61.1463 208.768 61.1463Z" fill="#8DA7BE"/>
<path opacity="0.1" d="M42.18 113.929H42.6314C42.4733 113.835 42.3405 113.704 42.2447 113.546C42.149 113.388 42.0932 113.209 42.0824 113.024C42.0824 112.313 42.9455 111.728 44.0037 111.728H57.468C58.5263 111.728 59.3924 112.313 59.3924 113.024C59.3924 113.738 58.5263 114.32 57.468 114.32H57.0197C57.1778 114.414 57.3106 114.545 57.4064 114.703C57.5021 114.861 57.5578 115.04 57.5687 115.225C57.5687 115.841 56.9404 116.342 56.0987 116.481H59.9749C61.0331 116.481 61.8961 117.063 61.8961 117.777C61.8961 118.491 61.0331 119.073 59.9749 119.073H46.5075C45.4523 119.073 44.5862 118.488 44.5862 117.777C44.5862 117.161 45.2175 116.656 46.0562 116.518H42.18C41.1248 116.518 40.2587 115.936 40.2587 115.225C40.2587 114.514 41.1248 113.929 42.18 113.929Z" fill="#8DA7BE"/>
<path d="M197.899 202.595C197.145 203.198 196.391 203.801 195.636 204.402C195.194 204.756 194.746 205.107 194.301 205.458C193.977 205.713 193.657 205.969 193.328 206.221C191.678 207.505 190.007 208.761 188.302 209.961C187.896 210.247 187.485 210.534 187.082 210.814C183.67 213.17 180.04 215.188 176.244 216.841L176.195 216.863V202.595H197.899Z" fill="#65617D"/>
<path d="M231.836 146.522L232.178 135.886C231.973 135.726 231.766 135.578 231.568 135.431C231.652 132.26 231.472 129.087 231.031 125.947C229.653 115.311 220.702 115.08 218.177 117.275C217.842 117.567 217.477 117.821 217.088 118.032C217.317 116.515 217.6 114.994 217.805 113.492C218.909 105.39 217.195 96.2753 210.967 91.0392C208.36 88.8506 205.173 87.5054 202.309 85.6738C197.18 82.4078 193.127 77.5842 187.939 74.4043C182.752 71.2245 175.466 70.0332 170.94 74.1211C169.187 75.7034 168.055 77.8982 166.256 79.425C162.901 82.2693 157.671 82.457 154.743 85.6338C154.597 85.7939 154.457 85.957 154.323 86.1294C151.883 89.2877 152.551 93.7665 153.328 97.6851C154.265 102.401 153.877 106.181 157.885 107.536C157.9 107.723 157.912 107.911 157.933 108.096C158.259 110.989 159.208 113.775 160.712 116.259C162.217 118.743 164.241 120.865 166.643 122.477L165.994 122.711C164.261 123.327 162.703 123.924 161.706 124.334C158.046 125.839 150.343 127.8 150.343 127.8C150.343 127.8 150.16 130.016 150.193 133.285C147.625 136.102 143.341 141.051 142.081 143.985C140.251 148.264 129.913 160.518 127.159 162.368C124.405 164.218 121.42 166.413 121.42 166.413C121.42 166.413 117.059 168.842 114.994 169.073C113.564 169.233 109.139 168.377 109.139 168.377C109.139 168.377 91.4658 146.522 92.6125 163.292C93.7591 180.062 107.876 180.632 107.876 180.632L122.109 180.401C122.109 180.401 129.8 181.441 133.243 178.554C136.183 176.091 151.419 162.581 156.314 156.452C156.427 156.578 156.54 156.701 156.659 156.821C156.659 156.821 158.607 154.279 158.839 156.821C159.071 159.364 157.574 160.515 158.379 161.439C159.184 162.362 161.593 165.601 161.706 166.872C161.819 168.143 158.495 173.336 164.115 177.276C164.204 177.338 164.298 177.396 164.402 177.455C165.405 179.76 168.595 182.017 168.595 182.017L185.81 181.786L218.292 184.329C218.292 184.329 219.259 183.47 220.568 182.066C222.315 183.685 224.74 185.074 227.472 184.221C227.472 184.221 231.376 179.483 231.491 176.362C231.491 176.362 228.966 169.772 227.832 167.808C226.697 165.844 228.637 161.565 228.637 161.565C228.637 161.565 230.012 157.403 230.817 157.403C231.623 157.403 231.046 154.633 231.046 154.633C230.742 154.18 230.551 153.659 230.491 153.115C230.431 152.571 230.503 152.021 230.702 151.511C231.376 149.76 231.836 146.522 231.836 146.522Z" fill="url(#paint0_linear)"/>
<path d="M212.364 144.127L211.144 145.567L206.216 151.361L199.778 151.755L189.473 152.395C189.473 152.395 175.579 135.495 178.189 131.817C179.138 130.49 179.293 128.738 179.104 127.085C179.08 126.858 179.046 126.63 179.007 126.405C178.694 124.656 178.149 122.958 177.384 121.357L177.726 121.2L177.945 121.098L190.095 115.502L193.102 114.117C193.252 114.953 193.53 115.761 193.926 116.512C193.984 116.629 194.048 116.746 194.115 116.856C198.259 123.783 211.55 119.402 211.55 119.402L212.364 144.127Z" fill="#EE8E9E"/>
<path d="M230.33 135.48C230.238 139.672 229.561 141.482 229.561 141.482L212.364 144.127L211.72 139.62L209.174 121.825L211.565 119.411C212.52 119.619 213.51 119.603 214.458 119.364C215.406 119.125 216.287 118.669 217.033 118.032C219.537 115.847 228.42 116.078 229.787 126.651C230.188 129.576 230.37 132.527 230.33 135.48Z" fill="#EE8E9E"/>
<path d="M226.258 184.587C226.258 184.587 230.128 179.874 230.244 176.772L226.371 170.218L222.956 166.524L216.576 178.954C216.576 178.954 220.79 186.311 226.258 184.587Z" fill="#DFE5EE"/>
<path opacity="0.1" d="M226.258 184.587C226.258 184.587 230.128 179.874 230.244 176.772L226.371 170.218L222.956 166.524L216.576 178.954C216.576 178.954 220.79 186.311 226.258 184.587Z" fill="black"/>
<path d="M194.301 205.458C193.977 205.713 193.657 205.969 193.328 206.221C191.678 207.505 190.007 208.761 188.302 209.961C187.896 210.247 187.485 210.534 187.082 210.814H170.428H95.6072H89.7976L61.0148 209.773L37.8678 209.576L32.0734 209.269L3.16251 207.729C2.10337 204.218 1.3072 200.631 0.780721 196.999C0.661784 196.18 0.555045 195.358 0.475754 194.536L32.0612 196.303L37.8556 196.632L89.7854 199.557L95.595 199.883L170.416 204.1L176.173 204.426H176.222L194.301 205.458Z" fill="#D48A9B"/>
<path d="M233.318 182.528C226.972 184.375 220.815 186.754 215.02 190.125C214.56 190.393 214.105 190.667 213.645 190.947C213.184 191.227 212.73 191.507 212.288 191.796C211.846 192.086 211.4 192.372 210.961 192.664L210.284 193.126L209.622 193.582C208.97 194.034 208.326 194.505 207.683 194.961L207.658 194.979C207.234 195.287 206.814 195.595 206.393 195.903C204.017 197.679 201.693 199.538 199.378 201.404C198.891 201.798 198.402 202.191 197.912 202.583L195.655 204.39C195.213 204.744 194.764 205.094 194.319 205.445C193.996 205.701 193.676 205.956 193.346 206.209L176.268 205.387H176.219L170.461 205.116L95.6073 201.536L89.7976 201.256L37.8678 198.766L32.0734 198.485L0.780724 196.999C0.661787 196.18 0.555049 195.358 0.475757 194.536C0.317174 193.126 0.199252 191.71 0.121994 190.288L32.0704 178.899L37.8647 176.827L43.1285 174.949L52.7197 175.454L74.8878 176.602L89.8068 177.393L95.6164 177.701L99.3279 177.898L100.215 177.947L131.45 179.594L131.779 179.616L145.716 180.348H145.875H145.967L147.36 180.419L152.112 180.672L158.052 180.979L160.01 181.084L160.379 181.106L163.148 181.25L163.938 181.29L166.582 181.432L167.634 181.49H167.668H167.888L170.361 181.623L174.191 181.826H174.21L175.399 181.888H175.527L176.238 181.928L177.982 182.02L179.507 182.1H179.522L181.233 182.189H181.26L182.556 182.26L183.551 182.312L187.079 182.5L187.713 182.534H187.933L188.238 182.552L189.272 182.608L189.735 182.632L193.334 182.82H193.663L198.976 182.774H199.013L219.21 182.608H219.598H220.006H221.208L227.71 182.556H228.68L233.318 182.528Z" fill="#EFC6CD"/>
<path d="M97.001 182.95L98.8796 193.037L149.955 192.261C149.955 192.261 153.798 193.382 153.713 190.279C153.713 190.279 161.486 182.863 200.861 191.486L185.743 179.502L144.42 181.743L96.5039 180.45L97.001 182.95Z" fill="#8DA7BE"/>
<path d="M97.9402 180.536L99.7334 191.486C99.7334 191.486 143.649 190.193 150.553 191.399L145.335 181.398C145.335 181.398 118.782 178.899 97.9402 180.536Z" fill="white"/>
<path opacity="0.1" d="M97.9402 180.536L99.7334 191.486C99.7334 191.486 143.649 190.193 150.553 191.399L145.335 181.398C145.335 181.398 118.782 178.899 97.9402 180.536Z" fill="black"/>
<path d="M98.5959 180.496L100.365 190.679C100.365 190.679 143.722 189.479 150.553 190.599L145.408 181.3C145.408 181.3 119.175 178.972 98.5959 180.496Z" fill="white"/>
<path opacity="0.1" d="M99.3919 180.81L101.115 190.334C101.115 190.334 143.521 189.211 150.215 190.26L145.183 181.558C145.183 181.558 119.523 179.373 99.3919 180.81Z" fill="black"/>
<path d="M99.7335 180.462L101.466 190.005C101.466 190.005 143.871 188.881 150.565 189.931L145.521 181.22C145.521 181.22 119.864 179.037 99.7335 180.462Z" fill="white"/>
<path d="M69.7308 154.565C69.7308 154.565 71.9509 157.492 68.7091 161.916C65.4673 166.339 62.7897 170.07 63.8724 172.828C63.8724 172.828 68.7518 164.615 72.7469 164.517C76.742 164.418 74.1131 159.503 69.7308 154.565Z" fill="#8DA7BE"/>
<path opacity="0.1" d="M69.7308 154.565C69.9258 154.849 70.0789 155.16 70.1852 155.488C74.0704 160.106 76.1412 164.415 72.4053 164.508C68.9256 164.606 64.7537 170.886 63.7534 172.474C63.788 172.593 63.8276 172.713 63.8723 172.834C63.8723 172.834 68.7518 164.622 72.7469 164.523C76.742 164.425 74.1131 159.503 69.7308 154.565Z" fill="black"/>
<path d="M73.857 158.299C73.857 159.327 73.7411 160.164 73.6008 160.164C73.4605 160.164 73.3446 159.327 73.3446 158.299C73.3446 157.271 73.488 157.751 73.6283 157.751C73.7685 157.751 73.857 157.268 73.857 158.299Z" fill="#FFD037"/>
<path d="M75.272 159.527C74.3754 160.023 73.5947 160.321 73.5276 160.195C73.4605 160.069 74.1375 159.579 75.028 159.075C75.9185 158.57 75.5709 158.939 75.638 159.075C75.7051 159.21 76.1686 159.035 75.272 159.527Z" fill="#FFD037"/>
<path d="M58.0109 154.565C58.0109 154.565 55.7907 157.492 59.0356 161.916C62.2804 166.339 64.9519 170.07 63.8724 172.828C63.8724 172.828 58.9776 164.615 54.9948 164.517C51.0119 164.418 53.6285 159.503 58.0109 154.565Z" fill="#8DA7BE"/>
<path opacity="0.1" d="M58.0109 154.565C57.8174 154.85 57.6644 155.161 57.5565 155.488C53.6712 160.106 51.6005 164.415 55.3363 164.508C58.816 164.606 62.991 170.886 63.9913 172.474C63.9588 172.593 63.9191 172.713 63.8724 172.834C63.8724 172.834 58.9776 164.622 54.9948 164.523C51.0119 164.425 53.6285 159.503 58.0109 154.565Z" fill="black"/>
<path d="M53.8847 158.299C53.8847 159.327 54.0005 160.164 54.1408 160.164C54.2811 160.164 54.397 159.327 54.397 158.299C54.397 157.271 54.2537 157.751 54.1134 157.751C53.9731 157.751 53.8847 157.268 53.8847 158.299Z" fill="#FFD037"/>
<path d="M52.4696 159.527C53.3662 160.023 54.15 160.321 54.2171 160.195C54.2842 160.069 53.6072 159.579 52.7166 159.075C51.8261 158.57 52.1738 158.939 52.1067 159.075C52.0396 159.21 51.573 159.035 52.4696 159.527Z" fill="#FFD037"/>
<path d="M75.8027 168.879L75.6929 169.802L75.5373 171.092L75.4733 171.631L75.3178 172.924L75.2507 173.462L75.0921 174.755L73.3172 189.445C73.1586 190.756 71.036 191.778 68.4743 191.778H59.2582C56.6965 191.778 54.577 190.756 54.4184 189.445L52.6404 174.755L52.4849 173.462L52.4208 172.924L52.2623 171.631L52.1982 171.092L52.0427 169.802L51.9298 168.879C51.8414 168.137 52.9881 167.512 54.4397 167.512H73.305C74.7536 167.512 75.9033 168.137 75.8027 168.879Z" fill="#65617D"/>
<path d="M75.702 169.793L75.5465 171.086H52.1982L52.0427 169.793H75.702Z" fill="#9D9CB5"/>
<path d="M75.4825 171.625L75.3269 172.917H52.4208L52.2622 171.625H75.4825Z" fill="#9D9CB5"/>
<path d="M75.2598 173.456L75.1043 174.746H52.6404L52.4849 173.456H75.2598Z" fill="#9D9CB5"/>
<path d="M103.948 167.691C103.948 167.691 98.0256 161.944 98.2544 169.414C98.4831 176.885 103.948 167.691 103.948 167.691Z" fill="#EE8E9E"/>
<path d="M157.131 154.587C157 155.165 156.363 156.126 155.369 157.329C150.233 163.572 135.622 176.547 132.758 178.954C129.343 181.829 121.712 180.801 121.712 180.801L107.592 181.032C107.592 181.032 93.5853 180.456 92.4447 163.794C91.3042 147.131 108.843 168.851 108.843 168.851C108.843 168.851 113.234 169.701 114.652 169.541C116.702 169.313 121.029 166.9 121.029 166.9C121.029 166.9 123.991 164.714 126.723 162.876C129.456 161.039 139.706 148.852 141.529 144.598C142.685 141.898 146.409 137.484 148.98 134.621C150.456 132.974 151.55 131.851 151.55 131.851C151.55 131.851 157.927 151.022 157.131 154.587Z" fill="#EE8E9E"/>
<path opacity="0.1" d="M157.131 154.587C157 155.165 156.363 156.126 155.369 157.329C150.184 152.001 149.102 141.369 148.98 134.609C150.456 132.962 151.55 131.838 151.55 131.838C151.55 131.838 157.927 151.022 157.131 154.587Z" fill="black"/>
<path opacity="0.1" d="M211.141 145.567L206.216 151.361L199.778 151.755L189.473 152.395C189.473 152.395 175.579 135.495 178.189 131.817C179.138 130.49 179.293 128.739 179.104 127.086C179.08 126.858 179.046 126.63 179.007 126.405C178.694 124.656 178.149 122.958 177.384 121.357L177.726 121.2L177.945 121.098C178.488 122.623 178.862 124.204 179.062 125.811C179.095 126.03 179.126 126.257 179.156 126.491C179.263 127.323 179.36 128.246 179.461 129.262C180.254 138.564 186.051 142.064 188.668 143.179C189.509 143.537 190.332 143.938 191.132 144.382C193.65 145.784 196.553 146.313 199.397 145.891C205.856 145.035 211.123 140.297 211.123 140.297L211.15 144.961L211.141 145.567Z" fill="black"/>
<path d="M211.339 181.715C211.339 181.715 168.976 181.598 163.392 177.692C157.808 173.786 161.117 168.611 161.001 167.346C160.885 166.081 158.498 162.864 157.702 161.94C156.906 161.017 158.385 159.872 158.156 157.345C157.927 154.817 155.994 157.345 155.994 157.345C148.019 149.181 149.727 128.492 149.727 128.492C149.727 128.492 157.351 126.541 161.011 125.042C162.002 124.635 163.545 124.056 165.28 123.432L165.924 123.198C170.397 121.582 175.716 119.756 175.716 119.756C175.716 119.756 176.738 119.027 177.765 121.209C178.235 122.213 178.708 123.829 179.086 126.411C179.119 126.63 179.15 126.858 179.18 127.092C179.287 127.923 179.385 128.846 179.485 129.862C180.278 139.165 186.076 142.664 188.692 143.779C189.534 144.137 190.356 144.539 191.157 144.982C193.674 146.384 196.577 146.914 199.421 146.491C205.88 145.635 211.147 140.898 211.147 140.898L211.175 145.561L211.254 159.573L211.339 181.715Z" fill="#DFE5EE"/>
<path d="M209.516 163.554L208.832 167.922C208.832 167.922 191.977 172.173 185.374 173.438C178.772 174.703 164.533 173.093 163.508 175.851C162.484 178.609 167.836 182.405 167.836 182.405L184.914 182.174L217.143 184.704C217.143 184.704 229.442 173.783 225.456 166.195C221.47 158.607 209.516 163.554 209.516 163.554Z" fill="#EE8E9E"/>
<path opacity="0.1" d="M174.783 129.068C174.783 129.068 167.037 135.504 168.519 138.61C170.001 141.716 174.783 129.068 174.783 129.068Z" fill="black"/>
<path opacity="0.1" d="M165.216 140.676C165.216 140.676 157.357 154.356 157.814 155.39C158.272 156.424 160.434 160.103 160.318 157.345C160.202 154.587 165.216 140.676 165.216 140.676Z" fill="black"/>
<path opacity="0.1" d="M168.406 143.092C168.406 143.092 166.576 151.598 164.762 155.162C162.947 158.727 168.406 143.092 168.406 143.092Z" fill="black"/>
<path opacity="0.1" d="M194.13 116.866C192.624 119.653 190.479 122.036 187.874 123.815C185.269 125.594 182.279 126.717 179.156 127.092H179.119C174.206 127.674 169.256 126.366 165.256 123.429C169.83 121.76 175.692 119.753 175.692 119.753C175.692 119.753 176.713 119.024 177.741 121.206L193.117 114.126C193.29 115.093 193.633 116.021 194.13 116.866Z" fill="black"/>
<path d="M196.533 106.652C196.539 110.114 195.645 113.517 193.941 116.521C193.127 117.954 192.14 119.279 191.004 120.467C187.834 123.799 183.609 125.907 179.062 126.427H179.022C178.295 126.511 177.564 126.553 176.832 126.553C171.992 126.553 167.32 124.754 163.71 121.5C160.099 118.246 157.802 113.763 157.256 108.908C157.172 108.163 157.13 107.414 157.131 106.664C157.131 101.39 159.207 96.3324 162.902 92.6032C166.596 88.8739 171.607 86.7789 176.832 86.7789C182.057 86.7789 187.068 88.8739 190.763 92.6032C194.457 96.3324 196.533 101.39 196.533 106.664V106.652Z" fill="#EE8E9E"/>
<path opacity="0.1" d="M209.29 144.281L211.12 141.51C211.12 141.51 221.141 129.44 230.943 137.142L230.601 147.719C230.601 147.719 230.144 150.936 229.46 152.644C229.264 153.151 229.193 153.699 229.252 154.24C229.312 154.781 229.5 155.299 229.802 155.75C229.802 155.75 230.372 158.521 229.576 158.521C228.78 158.521 227.411 162.658 227.411 162.658C227.411 162.658 225.475 166.912 226.615 168.867C227.756 170.821 230.259 177.372 230.259 177.372C230.259 177.372 226.274 174.958 225.133 170.935C225.133 170.935 215.453 163.347 207.936 168.165L209.29 144.281Z" fill="black"/>
<path opacity="0.1" d="M230.33 135.48C230.238 139.672 229.561 141.482 229.561 141.482L212.364 144.127L211.72 139.62C213.971 137.25 222.156 129.714 230.33 135.48Z" fill="black"/>
<path d="M209.29 143.665L211.12 140.895C211.12 140.895 221.141 128.825 230.943 136.527L230.601 147.103C230.601 147.103 230.144 150.32 229.46 152.029C229.264 152.536 229.193 153.083 229.252 153.624C229.312 154.165 229.5 154.683 229.802 155.135C229.802 155.135 230.372 157.905 229.576 157.905C228.78 157.905 227.411 162.042 227.411 162.042C227.411 162.042 225.475 166.296 226.615 168.251C227.756 170.206 230.259 176.756 230.259 176.756C230.259 176.756 226.274 174.343 225.133 170.32C225.133 170.32 215.453 162.732 207.936 167.549L209.29 143.665Z" fill="#DFE5EE"/>
<path opacity="0.1" d="M225.459 135.849C225.459 135.849 208.948 146.081 209.744 155.054C209.744 155.054 218.97 138.607 225.459 135.849Z" fill="black"/>
<path opacity="0.1" d="M211.138 145.57L211.217 159.583C208.094 159.724 205.151 159.315 202.825 157.274C201.205 155.852 200.263 153.888 199.775 151.764C199.412 150.052 199.279 148.3 199.378 146.552C199.377 146.535 199.377 146.517 199.378 146.5C199.571 142.631 200.452 138.761 199.988 134.917C199.525 131.072 197.216 127.015 193.447 126.205C192.703 126.042 191.867 125.983 191.336 125.432C190.751 124.817 190.778 123.859 190.842 123.007L190.952 121.569C190.98 121.2 190.992 120.834 190.992 120.467C190.99 117.199 189.863 114.033 187.805 111.51C185.747 108.987 182.885 107.263 179.708 106.634L179.586 106.612C178.525 106.397 177.421 106.184 176.36 106.43C174.341 106.901 173.035 108.878 171.175 109.817C167.607 111.614 161.657 109.647 157.921 109.028C157.677 108.988 157.445 108.942 157.223 108.89C157.138 108.145 157.096 107.396 157.098 106.646C157.099 103.6 157.794 100.595 159.128 97.8635C160.462 95.1315 162.4 92.7454 164.792 90.8892C167.184 89.033 169.967 87.7563 172.926 87.1575C175.884 86.5588 178.94 86.6541 181.856 87.436C184.773 88.2179 187.472 89.6655 189.746 91.6672C192.021 93.6689 193.809 96.1712 194.973 98.981C196.138 101.791 196.647 104.833 196.463 107.873C196.278 110.913 195.403 113.87 193.907 116.515C193.965 116.632 194.029 116.749 194.096 116.86C198.241 123.786 211.531 119.405 211.531 119.405L212.33 144.121L211.138 145.57Z" fill="black"/>
<path d="M171.892 109.475C173.74 108.533 175.045 106.557 177.076 106.089C178.134 105.843 179.238 106.055 180.306 106.267L180.428 106.292C183.787 106.963 186.786 108.854 188.856 111.607C190.926 114.361 191.923 117.785 191.66 121.231L191.55 122.668C191.483 123.518 191.455 124.481 192.047 125.091C192.575 125.642 193.41 125.706 194.154 125.86C197.924 126.673 200.232 130.709 200.696 134.575C201.16 138.441 200.263 142.323 200.086 146.208C199.909 150.092 200.617 154.38 203.526 156.932C208.101 160.934 215.054 158.656 221.107 158.29C218.43 158.29 216.423 155.501 216.277 152.804C216.13 150.108 217.32 147.54 218.457 145.109C219.595 142.677 220.735 140.06 220.482 137.37C220.135 133.676 217.25 130.718 216.146 127.162C214.859 123.025 216.1 118.583 216.682 114.283C217.777 106.23 216.072 97.1649 209.897 91.9596C207.311 89.7833 204.148 88.4443 201.306 86.6219C196.213 83.3621 192.197 78.5815 187.049 75.4109C181.901 72.2403 174.673 71.0645 170.181 75.1277C168.443 76.7007 167.32 78.8832 165.533 80.4008C162.041 83.3713 156.491 83.4267 153.691 87.0713C151.282 90.2081 151.935 94.6623 152.706 98.5563C153.734 103.749 153.155 107.791 158.653 108.715C162.374 109.309 168.321 111.276 171.892 109.475Z" fill="#603556"/>
<path opacity="0.1" d="M217.198 155.809C212.791 156.353 208.424 156.634 205.216 153.826C202.306 151.274 201.589 146.989 201.776 143.102C201.962 139.214 202.852 135.329 202.385 131.466C201.919 127.603 199.613 123.567 195.844 122.754C195.1 122.594 194.267 122.536 193.737 121.985C193.148 121.369 193.172 120.409 193.239 119.559L193.349 118.122C193.613 114.676 192.615 111.252 190.545 108.5C188.475 105.747 185.476 103.856 182.117 103.186L181.995 103.161C180.928 102.949 179.824 102.737 178.766 102.983C176.747 103.454 175.442 105.445 173.581 106.369C170.01 108.17 164.066 106.203 160.324 105.584C154.835 104.676 155.408 100.628 154.377 95.4257C153.801 92.5198 153.292 89.3 154.073 86.548C153.926 86.705 153.786 86.8559 153.652 87.0436C151.242 90.1804 151.895 94.6346 152.667 98.5286C153.694 103.722 153.115 107.763 158.613 108.687C162.352 109.302 168.299 111.273 171.87 109.472C173.719 108.53 175.024 106.554 177.055 106.086C178.113 105.839 179.217 106.052 180.284 106.264L180.406 106.289C183.766 106.96 186.764 108.851 188.834 111.604C190.904 114.357 191.902 117.782 191.638 121.228L191.529 122.665C191.462 123.515 191.434 124.478 192.026 125.088C192.553 125.639 193.389 125.703 194.133 125.857C197.902 126.67 200.211 130.706 200.675 134.572C201.138 138.438 200.245 142.32 200.065 146.204C199.885 150.089 200.595 154.377 203.505 156.929C208.079 160.931 215.032 158.653 221.086 158.287C219.442 158.296 218.061 157.243 217.198 155.809Z" fill="black"/>
<path d="M93.4298 166.078L112.231 158.998C112.675 158.83 113.168 158.848 113.599 159.046C114.031 159.245 114.367 159.608 114.534 160.057C114.699 160.505 114.682 161.002 114.485 161.438C114.289 161.874 113.929 162.213 113.484 162.381L94.6832 169.461L90.6515 169.054L93.4298 166.078Z" fill="#5C5C8E"/>
<path opacity="0.1" d="M113.966 159.478C114.132 159.927 114.114 160.424 113.917 160.86C113.72 161.296 113.359 161.635 112.914 161.802L94.1007 168.907L91.0754 168.599L90.6393 169.067L94.671 169.473L113.472 162.393C113.916 162.225 114.277 161.886 114.473 161.45C114.67 161.014 114.687 160.518 114.521 160.069C114.383 159.695 114.125 159.378 113.789 159.167C113.857 159.265 113.916 159.369 113.966 159.478Z" fill="white"/>
<path d="M93.4328 166.078L94.6832 169.461L91.3773 169.125L90.6546 169.051L91.6427 167.992L93.4328 166.078Z" fill="#EFC8C4"/>
<path d="M91.6396 167.983C91.7168 168.041 91.783 168.113 91.8348 168.195C91.8657 168.245 91.8821 168.302 91.8821 168.36C91.8821 168.418 91.8657 168.476 91.8348 168.525C91.7828 168.579 91.7219 168.624 91.6549 168.657C91.5793 168.708 91.5161 168.776 91.4696 168.854C91.4232 168.933 91.3948 169.022 91.3865 169.113L90.6607 169.042L91.6396 167.983Z" fill="#727A9C"/>
<path d="M152.462 187.684C152.462 187.684 168.748 184.233 196.073 188.607L185.368 180.678L165.893 176.655L152.115 180.348L152.462 187.684Z" fill="white"/>
<path opacity="0.1" d="M152.462 187.684C152.462 187.684 168.748 184.233 196.073 188.607L185.368 180.678L165.893 176.655L152.115 180.348L152.462 187.684Z" fill="black"/>
<path d="M150.553 191.415C150.553 191.415 158.754 169.024 200.873 191.486L185.756 181.666C185.756 181.666 149.541 171.566 145.357 183.205L150.553 191.415Z" fill="white"/>
<path opacity="0.1" d="M150.553 191.399C150.553 191.399 158.754 167.46 200.873 191.83L185.756 181.18C185.756 181.18 149.529 169.101 145.335 181.743L150.553 191.399Z" fill="black"/>
<path d="M150.553 191.409C150.553 191.409 158.754 167.115 200.873 191.486L185.756 180.835C185.756 180.835 149.541 169.101 145.357 181.758L150.553 191.409Z" fill="white"/>
<path opacity="0.1" d="M150.553 191.415C150.553 191.415 158.754 164.415 200.873 191.83L185.743 179.847C185.743 179.847 149.529 167.534 145.344 181.743L150.553 191.415Z" fill="black"/>
<path d="M150.553 191.399C150.553 191.399 158.754 164.071 200.873 191.486L185.743 179.502C185.743 179.502 149.529 167.189 145.344 181.398L150.553 191.399Z" fill="white"/>
<path opacity="0.1" d="M276.913 188.826C276.913 188.826 266.804 199.757 275.904 205.067C275.904 205.067 277.093 206.514 278.792 205.756C278.792 205.756 278.219 205.242 279.368 204.251C279.775 203.895 280.138 203.492 280.451 203.051C280.875 202.454 281.096 201.734 281.079 201C281.079 201 282.403 196.663 278.197 191.033C278.197 191.033 277.816 189.149 277.493 188.943L276.724 191.569C276.724 191.569 278.655 192.064 279.381 193.548C279.381 193.548 276.837 191.532 276.59 191.953C276.541 192.04 276.245 193.366 276.245 193.366C276.245 193.366 279.6 194.241 280.649 196.568C280.649 196.568 277.938 193.757 276.13 193.868L275.8 195.894C275.8 195.894 279.39 196.645 280.68 199.249C280.68 199.249 277.746 196.408 275.751 196.343L275.693 198.378C275.693 198.378 279.179 199.178 280.244 201.351C280.244 201.351 276.526 198.418 275.712 198.846C275.712 198.846 275.77 200.72 276.017 201.21C276.017 201.21 278.505 201.825 279.012 203.161C279.012 203.161 276.322 201.465 276.09 201.724C276.09 201.724 276.813 204.143 277.819 205.175C277.819 205.175 276.221 203.762 275.721 201.856C275.721 201.856 275.044 203.047 275.215 204.217C275.215 204.217 274.217 203.103 275.553 201.268C275.553 201.268 275.065 199.36 275.187 199.058C275.187 199.058 273.617 200.68 273.214 202.136C273.214 202.136 272.909 200.314 275.184 198.532V196.482C275.184 196.482 272.995 198.516 272.543 199.775C272.543 199.775 272.513 197.867 275.23 195.967L275.535 193.976C275.535 193.976 273.516 195.583 272.714 196.876C272.714 196.876 273.062 195.096 275.642 193.409L275.998 192.104C275.998 192.104 274.547 193.305 274.169 193.686C273.79 194.068 273.647 193.994 273.647 193.994C274.241 192.962 275.107 192.116 276.148 191.55C276.148 191.55 277.081 188.897 276.913 188.826Z" fill="#8DA7BE"/>
<path opacity="0.1" d="M322.106 10.9647C322.106 10.9647 308.599 17.1212 314.967 25.5525C314.967 25.5525 315.513 27.3533 317.367 27.3164C317.367 27.3164 317.035 26.6176 318.474 26.1497C318.986 25.981 319.475 25.7505 319.932 25.4633C320.551 25.078 321.03 24.5 321.295 23.8164C321.295 23.8164 324.174 20.3318 322.445 13.5012C322.445 13.5012 322.814 11.6142 322.594 11.2972L320.88 13.4212C320.88 13.4212 322.472 14.6278 322.576 16.2809C322.576 16.2809 321.002 13.4304 320.612 13.7259C320.533 13.7844 319.755 14.8926 319.755 14.8926C319.755 14.8926 322.5 17.0042 322.594 19.5623C322.594 19.5623 321.167 15.9115 319.453 15.3081L318.377 17.0504C318.377 17.0504 321.402 19.1405 321.603 22.0464C321.603 22.0464 319.981 18.2848 318.166 17.4475L317.334 19.2945C317.334 19.2945 320.246 21.3907 320.383 23.8103C320.383 23.8103 318.075 19.6546 317.16 19.7347C317.16 19.7347 316.498 21.4831 316.55 22.0341C316.55 22.0341 318.605 23.5732 318.569 25.0015C318.569 25.0015 316.739 22.3912 316.434 22.5389C316.434 22.5389 316.175 25.0508 316.712 26.396C316.712 26.396 315.775 24.469 316.044 22.5174C316.044 22.5174 314.961 23.3547 314.674 24.4998C314.674 24.4998 314.18 23.0807 316.114 21.9079C316.114 21.9079 316.391 19.9594 316.62 19.7285C316.62 19.7285 314.549 20.612 313.628 21.7878C313.628 21.7878 314.04 19.9871 316.824 19.2298L317.617 17.3459C317.617 17.3459 314.821 18.3679 313.921 19.3529C313.921 19.3529 314.623 17.5799 317.855 16.8903L318.895 15.1727C318.895 15.1727 316.419 15.8714 315.184 16.7487C315.184 16.7487 316.187 15.2466 319.212 14.6925L320.039 13.6274C320.039 13.6274 318.239 14.1692 317.736 14.3723C317.233 14.5755 317.126 14.4555 317.126 14.4555C318.074 13.7315 319.203 13.2881 320.386 13.1749C320.386 13.1749 322.216 11.0879 322.106 10.9647Z" fill="#8DA7BE"/>
<path opacity="0.1" d="M193.907 14.7756C193.907 14.7756 173.615 20.6243 183.48 29.3296C183.48 29.3296 184.356 31.1765 187.165 31.1765C187.165 31.1765 186.64 30.4624 188.811 30.0283C189.559 29.8766 190.292 29.6582 191.001 29.3757C191.838 29.0798 192.549 28.5056 193.02 27.7473C193.02 27.7473 197.289 24.2997 194.487 17.349C194.487 17.349 194.996 15.4528 194.655 15.1265L192.117 17.2259C192.117 17.2259 194.557 18.491 194.761 20.1625C194.761 20.1625 192.3 17.2413 191.712 17.5276C191.593 17.586 190.443 18.6819 190.443 18.6819C190.443 18.6819 194.676 20.8921 194.868 23.4809C194.868 23.4809 192.611 19.7531 189.989 19.0975L188.403 20.8274C188.403 20.8274 193.038 23.0222 193.419 25.965C193.419 25.965 190.864 22.1203 188.095 21.2245L186.875 23.0715C186.875 23.0715 191.34 25.2693 191.632 27.7196C191.632 27.7196 188.025 23.4563 186.64 23.5086C186.64 23.5086 185.685 25.2632 185.771 25.8204C185.771 25.8204 188.924 27.4457 188.909 28.874C188.909 28.874 186.061 26.1836 185.591 26.3252C185.591 26.3252 185.268 28.8586 186.115 30.2315C186.115 30.2315 184.645 28.2583 184.999 26.2944C184.999 26.2944 183.386 27.1101 182.98 28.2583C182.98 28.2583 182.194 26.8146 185.091 25.6818C185.091 25.6818 185.46 23.7179 185.798 23.4901C185.798 23.4901 182.688 24.3274 181.324 25.491C181.324 25.491 181.898 23.681 186.094 22.9914L187.247 21.1076C187.247 21.1076 183.038 22.068 181.703 23.0376C181.703 23.0376 182.718 21.2646 187.598 20.6489L189.122 18.9405C189.122 18.9405 185.39 19.5777 183.541 20.4334C183.541 20.4334 185.021 18.9405 189.586 18.4633L190.806 17.4106C190.806 17.4106 188.095 17.9093 187.338 18.1001C186.582 18.291 186.423 18.1678 186.423 18.1678C187.947 17.423 189.61 17.0118 191.303 16.9612C191.303 16.9612 194.084 14.9049 193.907 14.7756Z" fill="#8DA7BE"/>
<path opacity="0.1" d="M253.775 243.003C253.775 243.003 263.992 232.171 254.943 226.772C254.943 226.772 253.766 225.312 252.062 226.051C252.062 226.051 252.632 226.571 251.473 227.553C251.063 227.905 250.696 228.304 250.378 228.742C249.947 229.333 249.72 230.051 249.732 230.786C249.732 230.786 248.362 235.11 252.516 240.781C252.516 240.781 252.879 242.668 253.199 242.88L253.995 240.26C253.995 240.26 252.068 239.746 251.357 238.256C251.357 238.256 253.879 240.294 254.129 239.876C254.181 239.789 254.489 238.469 254.489 238.469C254.489 238.469 251.134 237.545 250.116 235.224C250.116 235.224 252.8 238.063 254.611 237.967L254.959 235.945C254.959 235.945 251.378 235.16 250.107 232.559C250.107 232.559 253.013 235.428 255.008 235.514L255.084 233.476C255.084 233.476 251.604 232.626 250.549 230.441C250.549 230.441 254.239 233.414 255.056 232.993C255.056 232.993 255.017 231.121 254.751 230.629C254.751 230.629 252.269 229.97 251.775 228.646C251.775 228.646 254.449 230.37 254.681 230.111C254.681 230.111 253.983 227.686 252.986 226.645C252.986 226.645 254.571 228.074 255.053 229.982C255.053 229.982 255.743 228.797 255.581 227.627C255.581 227.627 256.569 228.754 255.215 230.573C255.215 230.573 255.685 232.488 255.56 232.786C255.56 232.786 257.145 231.18 257.56 229.742C257.56 229.742 257.865 231.567 255.556 233.325L255.526 235.375C255.526 235.375 257.734 233.362 258.197 232.106C258.197 232.106 258.197 234.018 255.474 235.889L255.169 237.878C255.169 237.878 257.203 236.289 258.018 235.006C258.018 235.006 257.652 236.779 255.056 238.441L254.687 239.743C254.687 239.743 256.151 238.558 256.542 238.179C256.932 237.801 257.066 237.872 257.066 237.872C256.463 238.899 255.589 239.736 254.541 240.291C254.541 240.291 253.623 242.929 253.775 243.003Z" fill="#8DA7BE"/>
<path opacity="0.1" d="M154.134 0.381789C154.134 0.381789 155.875 15.2313 165.768 11.6482C165.768 11.6482 167.631 11.6636 168.156 9.86587C168.156 9.86587 167.394 9.97669 167.387 8.44988C167.38 7.90674 167.31 7.36635 167.177 6.83995C167.001 6.12778 166.6 5.49317 166.033 5.03302C166.033 5.03302 163.606 1.20984 156.619 0.834292C156.619 0.834292 154.948 -0.0891827 154.582 0.0277907L156.073 2.31493C156.073 2.31493 157.692 1.1452 159.284 1.54537C159.284 1.54537 156.119 2.20411 156.28 2.66585C156.311 2.76128 157.122 3.84174 157.122 3.84174C157.122 3.84174 159.974 1.8101 162.413 2.5027C162.413 2.5027 158.537 2.77359 157.452 4.24191L158.754 5.80566C158.754 5.80566 161.639 3.5216 164.448 4.2019C164.448 4.2019 160.404 4.63285 159.065 6.1258L160.584 7.48639C160.584 7.48639 163.438 5.31314 165.768 5.89801C165.768 5.89801 161.145 6.87074 160.943 7.77266C160.943 7.77266 162.398 8.93624 162.935 9.05937C162.935 9.05937 165.021 7.54795 166.344 8.00969C166.344 8.00969 163.325 8.98857 163.371 9.33334C163.371 9.33334 165.667 10.3368 167.098 10.226C167.098 10.226 164.996 10.5339 163.234 9.70272C163.234 9.70272 163.697 10.9925 164.695 11.6174C164.695 11.6174 163.206 11.6636 162.679 9.46262C162.679 9.46262 160.922 8.60687 160.773 8.32059C160.773 8.32059 160.986 10.5769 161.819 11.8175C161.819 11.8175 160.239 10.894 160.361 7.97275L158.836 6.63987C158.836 6.63987 158.961 9.64116 159.62 10.8047C159.62 10.8047 158.156 9.59499 158.473 6.27356L157.165 4.75598C157.165 4.75598 157.076 7.34786 157.534 8.8008C157.534 8.8008 156.415 7.3848 156.805 4.30656L156.046 3.18915C156.046 3.18915 156.018 5.08227 156.046 5.6302C156.073 6.17813 155.942 6.23046 155.942 6.23046C155.541 5.10257 155.459 3.88442 155.704 2.71202C155.704 2.71202 154.286 0.307911 154.134 0.381789Z" fill="#8DA7BE"/>
<path opacity="0.1" d="M228.076 209.324C228.076 209.324 213.797 205.322 213.34 215.924C213.34 215.924 212.62 217.66 214.069 218.83C214.069 218.83 214.255 218.079 215.658 218.648C216.158 218.848 216.68 218.987 217.213 219.064C217.934 219.168 218.668 219.032 219.305 218.676C219.305 218.676 223.727 217.857 226.728 211.491C226.728 211.491 228.207 210.281 228.253 209.893L225.59 210.42C225.59 210.42 226.048 212.378 225.078 213.714C225.078 213.714 225.688 210.506 225.191 210.481C225.09 210.481 223.791 210.823 223.791 210.823C223.791 210.823 224.572 214.228 223.013 216.244C223.013 216.244 224.233 212.519 223.297 210.949L221.364 211.593C221.364 211.593 222.364 215.151 220.674 217.515C220.674 217.515 221.815 213.578 220.949 211.762L219.137 212.652C219.137 212.652 220.052 216.142 218.628 218.1C218.628 218.1 219.488 213.415 218.735 212.882C218.735 212.882 217.118 213.806 216.804 214.255C216.804 214.255 217.414 216.776 216.475 217.838C216.475 217.838 216.719 214.646 216.386 214.56C216.386 214.56 214.593 216.324 214.154 217.703C214.154 217.703 214.657 215.619 216.1 214.292C216.1 214.292 214.74 214.237 213.791 214.929C213.791 214.929 214.31 213.523 216.536 213.871C216.536 213.871 217.988 212.55 218.308 212.522C218.308 212.522 216.173 211.864 214.703 212.171C214.703 212.171 216.161 211.051 218.78 212.27L220.586 211.346C220.586 211.346 217.786 210.327 216.472 210.503C216.472 210.503 218.134 209.579 221.046 211.146L222.931 210.497C222.931 210.497 220.589 209.435 219.082 209.312C219.082 209.312 220.805 208.804 223.48 210.334L224.791 210.047C224.791 210.047 223.065 209.302 222.55 209.124C222.035 208.945 222.038 208.816 222.038 208.816C223.219 208.871 224.362 209.254 225.34 209.924C225.34 209.924 228.085 209.493 228.076 209.324Z" fill="#8DA7BE"/>
</g>
<defs>
<linearGradient id="paint0_linear" x1="162.368" y1="184.473" x2="162.368" y2="71.4985" gradientUnits="userSpaceOnUse">
<stop stop-color="#808080" stop-opacity="0.25"/>
<stop offset="0.54" stop-color="#808080" stop-opacity="0.12"/>
<stop offset="1" stop-color="#808080" stop-opacity="0.1"/>
</linearGradient>
<clipPath id="clip0">
<rect width="323" height="243" fill="white"/>
</clipPath>
</defs>
</svg>
